<?xml version="1.0" standalone="no"?>
 <!DOCTYPE svg PUBLIC "-//W3C//DTD SVG 1.1//EN" 
 "http://www.w3.org/Graphics/SVG/1.1/DTD/svg11.dtd"> 
<svg xmlns="http://www.w3.org/2000/svg" version="1.1" 
    width="21.9227cm" height="18.7325cm" viewBox="0 0 86310 73750 ">
<title>SVG Picture created as pnp55te-Edge_Cuts.svg date 2020/04/21 17:44:55 </title>
  <desc>Picture generated by PCBNEW </desc>
<g style="fill:#000000; fill-opacity:1;stroke:#000000; stroke-opacity:1;
stroke-linecap:round; stroke-linejoin:round; "
 transform="translate(0 0) scale(1 1)">
</g>
<g style="fill:#000000; fill-opacity:0.0; 
stroke:#000000; stroke-width:-0.000393701; stroke-opacity:1; 
stroke-linecap:round; stroke-linejoin:round;">
</g>
<g style="fill:#C2C200; fill-opacity:0.0; 
stroke:#C2C200; stroke-width:-0.000393701; stroke-opacity:1; 
stroke-linecap:round; stroke-linejoin:round;">
</g>
<g style="fill:#C2C200; fill-opacity:0.0; 
stroke:#C2C200; stroke-width:78.7402; stroke-opacity:1; 
stroke-linecap:round; stroke-linejoin:round;">
<path d="M22946 49859
L22946 53008
" />
<path d="M24167 49859
L22946 49859
" />
<path d="M24167 53008
L24167 49859
" />
<path d="M22946 53008
L24167 53008
" />
<path d="M22946 54189
L22946 57339
" />
<path d="M24167 54189
L22946 54189
" />
<path d="M24167 57339
L24167 54189
" />
<path d="M22946 57339
L24167 57339
" />
<circle cx="21903.4" cy="65174.2" r="590.551" /> 
<circle cx="21903.4" cy="39721.5" r="590.551" /> 
<circle cx="46409.8" cy="41867.1" r="590.551" /> 
<circle cx="46411.2" cy="63008.9" r="590.551" /> 
</g>
<g style="fill:#C2C200; fill-opacity:0.0; 
stroke:#C2C200; stroke-width:39.3701; stroke-opacity:1; 
stroke-linecap:round; stroke-linejoin:round;">
<path d="M55860 25449
L61765 31355
" />
<path d="M7041 68363
L1135 62457
" />
<path d="M7041 25449
L1135 31355
" />
<path d="M61765 62457
L55860 68363
" />
<path d="M7041 25449
L55860 25449
" />
<path d="M61765 31355
L61765 62457
" />
<path d="M7041 68363
L55860 68363
" />
<path d="M1135 31355
L1135 62457
" />
<g >
</g>
<g >
</g>
<g >
</g>
<g >
</g>
<g >
</g>
<g >
</g>
<g >
</g>
<g >
</g>
<g >
</g>
<g >
</g>
<g >
</g>
<g >
</g>
<g >
</g>
<g >
</g>
<g >
</g>
<g >
</g>
<g >
</g>
<g >
</g>
<g >
</g>
<g >
</g>
<g >
</g>
<g >
</g>
<g >
</g>
<g >
</g>
<g >
</g>
<g >
</g>
<g >
</g>
<g >
</g>
<g >
</g>
<g >
</g>
<g >
</g>
<g >
</g>
<g >
</g>
<g >
</g>
<g >
</g>
<g >
</g>
<g >
</g>
<g >
</g>
<g >
</g>
<g >
</g>
<g >
</g>
<g >
</g>
<g >
</g>
<g >
</g>
<g >
</g>
<g >
</g>
<g >
</g>
<g >
</g>
<g >
</g>
<g >
</g>
<g >
</g>
<g >
</g>
<g >
</g>
<g >
</g>
<g >
</g>
<g >
</g>
<g >
</g>
<g >
</g>
<g >
</g>
<g >
</g>
</g> 
</svg>
